<?xml version="1.0" encoding="UTF-8" standalone="no"?><!DOCTYPE svg PUBLIC "-//W3C//DTD SVG 1.1//EN" "http://www.w3.org/Graphics/SVG/1.1/DTD/svg11.dtd"><svg width="100%" height="100%" viewBox="0 0 915 971" version="1.1" xmlns="http://www.w3.org/2000/svg" xmlns:xlink="http://www.w3.org/1999/xlink" xml:space="preserve" xmlns:serif="http://www.serif.com/" style="fill-rule:evenodd;clip-rule:evenodd;stroke-linejoin:round;stroke-miterlimit:2;"><g><g><path d="M157.96,712.95l-33.872,75.797l-118.641,-0l78.778,-176.287l73.734,100.49Z" style="fill:#004d84;"/><path d="M320.54,349.135l-88.59,198.244l-96.158,-50.311l127.049,-284.306l-0.763,-1.708l58.462,0l0,138.08Z" style="fill:#004d84;"/><path d="M266.28,817.611l1.128,1.538l646.518,-819.149l-10.799,9.932l-635.719,687.36l-1.128,-1.022l0,121.342Z" style="fill:#378ecb;"/><path d="M903.127,9.932l-635.719,584.684l-1.128,-0.59l0,102.244l1.128,1.022l635.719,-687.36Z" style="fill:#85b94a;"/><path d="M0.594,455.516l265.686,362.095l0,-121.342l-265.686,-240.753Z" style="fill:#004d84;"/><path d="M320.54,349.135l0,-138.08l61.704,0l-0.763,1.708l76.772,171.798l-84.083,77.333l-52.01,-116.385l-1.621,3.627Z" style="fill:#378ecb;"/><path d="M524.965,533.846l113.909,254.901l-118.641,-0l-71.019,-158.924l75.751,-95.977Z" style="fill:#84ba46;"/><path d="M266.28,594.026l-266.28,-139.319l0.594,0.81l265.686,240.753l0,-102.244Z" style="fill:#487218;"/><path d="M555.333,495.369c17.13,30.898 56.959,69.403 149.552,79.723c113.8,12.683 114.415,82.706 78.711,103.985c-71.489,42.605 -171.863,-22.386 -171.863,-22.386l57.769,132.057c0,0 117.848,25.087 184.861,-29.516c58.491,-47.66 63.524,-114.816 59.563,-146.589c-5.45,-43.724 -45.028,-109.728 -124.554,-126.37c-82.087,-17.178 -154.165,-33.079 -137.924,-88.25c27.898,-94.768 194.249,11.554 194.249,11.554l54.881,-84.335c0,0 -77.462,-65.705 -160.639,-63.77l-184.607,233.9Z" style="fill:#84ba46;"/></g><g><path d="M0,839.341l55.867,0l0,25.785l-22.363,0l0,24.432l20.93,0l0,24.511l-20.93,0l0,28.331l24.591,0l0,25.785l-58.095,0l0,-128.843Zm106.162,64.939l0,22.203l-42.258,0l0,-22.203l42.258,0Zm87.779,-8.834l-33.504,0l0,-22.394c0,-6.512 -0.358,-10.575 -1.074,-12.19c-0.716,-1.615 -2.295,-2.422 -4.735,-2.422c-2.759,0 -4.51,0.982 -5.252,2.945c-0.743,1.963 -1.114,6.207 -1.114,12.733l0,59.846c0,6.26 0.371,10.346 1.114,12.256c0.743,1.91 2.414,2.865 5.014,2.865c2.494,0 4.125,-0.957 4.894,-2.871c0.769,-1.915 1.154,-6.409 1.154,-13.483l0,-16.195l33.504,0l0,5.021c0,13.336 -0.942,22.793 -2.825,28.372c-1.883,5.579 -6.048,10.468 -12.494,14.665c-6.446,4.197 -14.391,6.296 -23.835,6.296c-9.815,0 -17.906,-1.777 -24.273,-5.332c-6.367,-3.555 -10.584,-8.475 -12.654,-14.762c-2.069,-6.287 -3.104,-15.744 -3.104,-28.371l0,-37.642c0,-9.285 0.318,-16.248 0.955,-20.89c0.637,-4.642 2.533,-9.112 5.69,-13.41c3.157,-4.297 7.534,-7.68 13.131,-10.147c5.597,-2.467 12.03,-3.701 19.299,-3.701c9.868,0 18.012,1.907 24.432,5.722c6.42,3.815 10.637,8.57 12.654,14.266c2.016,5.695 3.024,14.556 3.024,26.583l0,12.239Zm89.052,-56.105l0,128.843l-33.504,0l0,-54.116l-10.027,0l0,54.116l-33.504,0l0,-128.843l33.504,0l0,46.078l10.027,0l0,-46.078l33.504,0Zm13.449,0l55.867,0l0,25.785l-22.363,0l0,24.432l20.93,0l0,24.511l-20.93,0l0,28.331l24.591,0l0,25.785l-58.095,0l0,-128.843Zm145.953,56.105l-33.504,0l0,-22.394c0,-6.512 -0.358,-10.575 -1.074,-12.19c-0.716,-1.615 -2.295,-2.422 -4.735,-2.422c-2.759,0 -4.51,0.982 -5.252,2.945c-0.743,1.963 -1.114,6.207 -1.114,12.733l0,59.846c0,6.26 0.371,10.346 1.114,12.256c0.743,1.91 2.414,2.865 5.014,2.865c2.494,0 4.125,-0.957 4.894,-2.871c0.769,-1.915 1.154,-6.409 1.154,-13.483l0,-16.195l33.504,0l0,5.021c0,13.336 -0.942,22.793 -2.825,28.372c-1.883,5.579 -6.048,10.468 -12.494,14.665c-6.446,4.197 -14.391,6.296 -23.835,6.296c-9.815,0 -17.906,-1.777 -24.273,-5.332c-6.367,-3.555 -10.584,-8.475 -12.654,-14.762c-2.069,-6.287 -3.104,-15.744 -3.104,-28.371l0,-37.642c0,-9.285 0.318,-16.248 0.955,-20.89c0.637,-4.642 2.533,-9.112 5.69,-13.41c3.157,-4.297 7.534,-7.68 13.131,-10.147c5.597,-2.467 12.03,-3.701 19.299,-3.701c9.868,0 18.012,1.907 24.432,5.722c6.42,3.815 10.637,8.57 12.654,14.266c2.016,5.695 3.024,14.556 3.024,26.583l0,12.239Zm91.838,-56.105l-19.179,58.174l21.01,70.669l-34.618,0l-13.529,-55.23l0,55.23l-33.504,0l0,-128.843l33.504,0l0,50.057l14.882,-50.057l31.435,0Zm76.16,38.995l-31.117,0l0,-9.55c0,-4.457 -0.398,-7.295 -1.194,-8.515c-0.796,-1.22 -2.122,-1.83 -3.979,-1.83c-2.016,0 -3.541,0.823 -4.576,2.47c-1.035,1.646 -1.552,4.141 -1.552,7.486c0,4.301 0.584,7.54 1.751,9.716c1.114,2.177 4.271,4.802 9.47,7.876c14.908,8.852 24.299,16.116 28.172,21.793c3.873,5.677 5.809,14.829 5.809,27.456c0,9.178 -1.074,15.943 -3.223,20.293c-2.149,4.35 -6.3,7.998 -12.455,10.943c-6.154,2.945 -13.317,4.417 -21.487,4.417c-8.966,0 -16.619,-1.698 -22.959,-5.093c-6.34,-3.396 -10.492,-7.719 -12.455,-12.972c-1.963,-5.252 -2.945,-12.707 -2.945,-22.363l0,-8.436l31.117,0l0,15.678c0,4.828 0.438,7.932 1.313,9.311c0.875,1.379 2.427,2.069 4.656,2.069c2.228,0 3.886,-0.875 4.974,-2.626c1.088,-1.751 1.631,-4.35 1.631,-7.799c0,-7.587 -1.035,-12.547 -3.104,-14.882c-2.122,-2.334 -7.348,-6.234 -15.678,-11.699c-8.33,-5.518 -13.847,-9.523 -16.553,-12.017c-2.706,-2.494 -4.947,-5.942 -6.725,-10.346c-1.777,-4.404 -2.666,-10.027 -2.666,-16.871c0,-9.868 1.26,-17.084 3.78,-21.646c2.52,-4.563 6.592,-8.131 12.216,-10.704c5.624,-2.573 12.415,-3.86 20.373,-3.86c8.701,0 16.115,1.406 22.243,4.218c6.128,2.812 10.187,6.353 12.176,10.624c1.99,4.271 2.984,11.526 2.984,21.766l0,5.093Zm90.326,-38.995l0,128.843l-33.504,0l0,-54.116l-10.027,0l0,54.116l-33.504,0l0,-128.843l33.504,0l0,46.078l10.027,0l0,-46.078l33.504,0Zm13.449,0l55.867,0l0,25.785l-22.363,0l0,24.432l20.93,0l0,24.511l-20.93,0l0,28.331l24.591,0l0,25.785l-58.095,0l0,-128.843Zm67.724,0l55.867,0l0,25.785l-22.363,0l0,24.432l20.93,0l0,24.511l-20.93,0l0,28.331l24.591,0l0,25.785l-58.095,0l0,-128.843Zm133.061,0l0,25.785l-19.896,0l0,103.059l-33.504,0l0,-103.059l-19.816,0l0,-25.785l73.215,0Z" style="fill:#747c6b;"/><path d="M54.434,904.449l0,9.62l-20.93,0l0,28.331l24.591,0l0,25.785l-58.095,0l0,-63.735l54.434,0Zm51.728,0l0,22.034l-42.258,0l0,-22.034l42.258,0Zm42.099,0l0,29.515c0,6.26 0.371,10.346 1.114,12.256c0.743,1.91 2.414,2.865 5.014,2.865c2.494,0 4.125,-0.957 4.894,-2.871c0.769,-1.915 1.154,-6.409 1.154,-13.483l0,-16.195l33.504,0l0,5.021c0,13.336 -0.942,22.793 -2.825,28.372c-1.883,5.579 -6.048,10.468 -12.494,14.665c-6.446,4.197 -14.391,6.296 -23.835,6.296c-9.815,0 -17.906,-1.777 -24.273,-5.332c-6.367,-3.555 -10.584,-8.475 -12.654,-14.762c-2.069,-6.287 -3.104,-15.744 -3.104,-28.371l0,-17.976l33.504,0Zm134.732,0l0,63.735l-33.504,0l0,-54.116l-10.027,0l0,54.116l-33.504,0l0,-63.735l77.035,0Zm67.883,0l0,9.62l-20.93,0l0,28.331l24.591,0l0,25.785l-58.095,0l0,-63.735l54.434,0Zm45.839,0l0,29.515c0,6.26 0.371,10.346 1.114,12.256c0.743,1.91 2.414,2.865 5.014,2.865c2.494,0 4.125,-0.957 4.894,-2.871c0.769,-1.915 1.154,-6.409 1.154,-13.483l0,-16.195l33.504,0l0,5.021c0,13.336 -0.942,22.793 -2.825,28.372c-1.883,5.579 -6.048,10.468 -12.494,14.665c-6.446,4.197 -14.391,6.296 -23.835,6.296c-9.815,0 -17.906,-1.777 -24.273,-5.332c-6.367,-3.555 -10.584,-8.475 -12.654,-14.762c-2.069,-6.287 -3.104,-15.744 -3.104,-28.371l0,-17.976l33.504,0Zm120.4,0l18.948,63.735l-34.618,0l-13.529,-55.23l0,55.23l-33.504,0l0,-63.735l62.703,0Zm87.52,0c1.102,1.166 2.014,2.277 2.734,3.333c3.873,5.677 5.809,14.829 5.809,27.456c0,9.178 -1.074,15.943 -3.223,20.293c-2.149,4.35 -6.3,7.998 -12.455,10.943c-6.154,2.945 -13.317,4.417 -21.487,4.417c-8.966,0 -16.619,-1.698 -22.959,-5.093c-6.34,-3.396 -10.492,-7.719 -12.455,-12.972c-1.963,-5.252 -2.945,-12.707 -2.945,-22.363l0,-8.436l31.117,0l0,15.678c0,4.828 0.438,7.932 1.313,9.311c0.875,1.379 2.427,2.069 4.656,2.069c2.228,0 3.886,-0.875 4.974,-2.626c1.088,-1.751 1.631,-4.35 1.631,-7.799c0,-7.587 -1.035,-12.547 -3.104,-14.882c-2.122,-2.334 -7.348,-6.234 -15.678,-11.699c-4.508,-2.986 -8.193,-5.53 -11.053,-7.63l53.124,0Zm96.084,0l0,63.735l-33.504,0l0,-54.116l-10.027,0l0,54.116l-33.504,0l0,-63.735l77.035,0Zm67.883,0l0,9.62l-20.93,0l0,28.331l24.591,0l0,25.785l-58.095,0l0,-63.735l54.434,0Zm67.724,0l0,9.62l-20.93,0l0,28.331l24.591,0l0,25.785l-58.095,0l0,-63.735l54.434,0Zm58.732,0l0,63.735l-33.504,0l0,-63.735l33.504,0Z"/></g></g></svg>