<?xml version="1.0" encoding="UTF-8" standalone="no"?><!DOCTYPE svg PUBLIC "-//W3C//DTD SVG 1.1//EN" "http://www.w3.org/Graphics/SVG/1.1/DTD/svg11.dtd"><svg width="100%" height="100%" viewBox="0 0 915 820" version="1.1" xmlns="http://www.w3.org/2000/svg" xmlns:xlink="http://www.w3.org/1999/xlink" xml:space="preserve" xmlns:serif="http://www.serif.com/" style="fill-rule:evenodd;clip-rule:evenodd;stroke-linejoin:round;stroke-miterlimit:2;"><g><path d="M157.96,712.95l-33.872,75.797l-118.641,-0l78.778,-176.287l73.734,100.49Z" style="fill:#004d84;"/><path d="M320.54,349.135l-88.59,198.244l-96.158,-50.311l127.049,-284.306l-0.763,-1.708l58.462,0l0,138.08Z" style="fill:#004d84;"/><path d="M266.28,817.611l1.128,1.538l646.518,-819.149l-10.799,9.932l-635.719,687.36l-1.128,-1.022l0,121.342Z" style="fill:#378ecb;"/><path d="M903.127,9.932l-635.719,584.684l-1.128,-0.59l0,102.244l1.128,1.022l635.719,-687.36Z" style="fill:#85b94a;"/><path d="M0.594,455.516l265.686,362.095l0,-121.342l-265.686,-240.753Z" style="fill:#004d84;"/><path d="M320.54,349.135l0,-138.08l61.704,0l-0.763,1.708l76.772,171.798l-84.083,77.333l-52.01,-116.385l-1.621,3.627Z" style="fill:#378ecb;"/><path d="M524.965,533.846l113.909,254.901l-118.641,-0l-71.019,-158.924l75.751,-95.977Z" style="fill:#84ba46;"/><path d="M266.28,594.026l-266.28,-139.319l0.594,0.81l265.686,240.753l0,-102.244Z" style="fill:#487218;"/><path d="M555.333,495.369c17.13,30.898 56.959,69.403 149.552,79.723c113.8,12.683 114.415,82.706 78.711,103.985c-71.489,42.605 -171.863,-22.386 -171.863,-22.386l57.769,132.057c0,0 117.848,25.087 184.861,-29.516c58.491,-47.66 63.524,-114.816 59.563,-146.589c-5.45,-43.724 -45.028,-109.728 -124.554,-126.37c-82.087,-17.178 -154.165,-33.079 -137.924,-88.25c27.898,-94.768 194.249,11.554 194.249,11.554l54.881,-84.335c0,0 -77.462,-65.705 -160.639,-63.77l-184.607,233.9Z" style="fill:#84ba46;"/></g></svg>